<?xml version="1.0" encoding="utf-8"?>
<!-- Generator: Adobe Illustrator 21.0.2, SVG Export Plug-In . SVG Version: 6.00 Build 0)  -->
<svg version="1.1" id="next" xmlns="http://www.w3.org/2000/svg" xmlns:xlink="http://www.w3.org/1999/xlink" x="0px" y="0px"
	 viewBox="0 0 400 400" style="enable-background:new 0 0 400 400;" xml:space="preserve">
<style type="text/css">
	.st0{fill:#FFFFFF;}
</style>
<path d="M193.2,82.4c4.8,0,9.6,0,14.3,0c0.7,0.1,1.3,0.3,2,0.4c5.7,0.9,11.5,1.5,17.1,2.7c12.6,2.7,24.4,7.6,35.4,14.3
	c10.7,6.6,20.2,14.7,28.3,24.3c6.6,7.8,12.1,16.3,16.5,25.5c5.1,10.7,8.6,21.9,10.3,33.7c0.5,3.4,0.9,6.8,1.3,10.2
	c0,4.6,0,9.3,0,13.9c-0.1,0.7-0.3,1.3-0.4,2c-0.9,5.7-1.5,11.5-2.7,17.1c-2.7,12.6-7.6,24.4-14.3,35.4
	c-6.6,10.8-14.8,20.3-24.6,28.5c-7.4,6.2-15.5,11.5-24.2,15.7c-10.3,5-21,8.5-32.3,10.4c-4.1,0.7-8.2,1.1-12.3,1.7
	c-4.8,0-9.6,0-14.3,0c-0.7-0.1-1.3-0.3-2-0.4c-7.6-1.4-15.3-2.3-22.7-4.2c-11.1-2.8-21.5-7.7-31.2-13.8c-9.5-6-18-13.2-25.4-21.6
	c-7.3-8.3-13.3-17.4-18-27.4c-4.9-10.3-8.3-21.1-10-32.4c-0.6-3.8-1-7.6-1.5-11.4c0-4.6,0-9.3,0-13.9c0.1-0.7,0.3-1.5,0.4-2.2
	c0.7-7.9,2.1-15.7,4.3-23.3c3.9-13.3,9.9-25.6,18-36.8c5.1-7.1,11-13.5,17.6-19.3c8.3-7.2,17.5-13.2,27.5-17.9
	c9.5-4.5,19.4-7.7,29.7-9.4C184.3,83.5,188.7,83,193.2,82.4z"/>
<path class="st0" d="M200.4,189.9c-0.5-0.2-0.8-0.3-1-0.4c-9.4-5.7-18.8-11.4-28.2-17c-1.7-1-3.4-1.9-5.2-2.5
	c-2.7-0.8-5.2,0.4-6.1,3c-0.5,1.5-0.8,3.2-0.8,4.8c0,15.1,0.1,30.3,0.2,45.4c0,1.6,0.3,3.3,0.9,4.8c0.9,2.6,3.4,3.8,6.1,3.1
	c1.4-0.4,2.8-1,4.1-1.8c7.3-4.3,14.6-8.8,21.9-13.2c2.6-1.6,5.2-3.1,8.2-4.8c0,1.1,0,1.8,0,2.5c0.1,3.9,0,7.8,0.3,11.7
	c0.4,5,4.3,7.2,8.7,4.9c4.3-2.3,8.5-4.8,12.7-7.3c9.1-5.4,18.2-10.9,27.3-16.4c1.8-1.1,3.3-2.5,3.7-4.8c0.6-3.6-1.4-5.7-4.1-7.3
	c-11.6-7.1-23.2-14.1-34.8-21c-2.1-1.3-4.3-2.6-6.7-3.4c-2.9-1.1-5.5,0.3-6.5,3.2c-0.5,1.4-0.7,2.9-0.7,4.4
	C200.3,181.6,200.4,185.6,200.4,189.9z"/>
<g>
</g>
<g>
</g>
<g>
</g>
<g>
</g>
<g>
</g>
<g>
</g>
<g>
</g>
<g>
</g>
<g>
</g>
<g>
</g>
<g>
</g>
<g>
</g>
<g>
</g>
<g>
</g>
<g>
</g>
</svg>
