<?xml version="1.0" encoding="utf-8"?>
<!-- Generator: Adobe Illustrator 21.0.2, SVG Export Plug-In . SVG Version: 6.00 Build 0)  -->
<svg version="1.1" id="play" xmlns="http://www.w3.org/2000/svg" xmlns:xlink="http://www.w3.org/1999/xlink" x="0px" y="0px"
	 viewBox="0 0 400 400" style="enable-background:new 0 0 400 400;" xml:space="preserve">
<style type="text/css">
	.st0{fill:#FFFFFF;}
</style>
<path d="M201.7,308.6c-64,0-115.9-51.9-116-115.9c-0.1-64,52.1-116.2,116.1-116.1c64,0.1,115.9,52.1,115.9,116
	C317.6,256.6,265.7,308.5,201.7,308.6z"/>
<path class="st0" d="M204.1,193.8c-0.1,0-0.1,0-0.2,0c0,7.3,0,14.6,0,22c0,4.6,0.7,9,3.8,12.7c3.7,4.5,9,4.6,12.8,0.1
	c3-3.5,3.9-7.8,3.9-12.2c0.1-14.9,0.1-29.9,0-44.9c0-4.5-0.9-8.9-4-12.4c-3.7-4.2-8.8-4.2-12.5,0.1c-2.3,2.7-3.7,6-3.7,9.5
	C204,177,204.1,185.4,204.1,193.8z"/>
<path class="st0" d="M144.6,227.3c-5-0.2-7.7-2.9-8.2-7c-0.2-1.3-0.2-2.7-0.2-4.1c0-14.9,0-29.7,0-44.6c0-1.7,0-3.5,0.5-5.2
	c1.3-5,5.2-7,10.1-5.3c1.3,0.5,2.5,1.1,3.7,1.8c13.3,7.6,26.6,15.2,39.8,22.8c1.1,0.6,2.2,1.3,3.2,2.1c4.4,3.5,4.4,8.6,0,12.1
	c-0.9,0.7-2,1.4-3,2c-13.4,7.7-26.8,15.4-40.2,23C148.1,226.2,145.8,226.8,144.6,227.3z"/>
<path class="st0" d="M263.7,194c0,8.3,0.1,16.6,0,24.9c-0.1,3.5-1.3,6.7-3.4,9.4c-3.8,4.8-9.2,4.8-13.1,0.1
	c-2.8-3.4-3.7-7.6-3.8-11.8c-0.1-15.1-0.1-30.2,0-45.3c0-4.5,1-8.7,4-12.2c3.6-4.2,8.7-4.2,12.4-0.1c2.5,2.8,3.8,6.2,3.9,9.9
	C263.8,177.2,263.7,185.6,263.7,194z"/>
<g>
</g>
<g>
</g>
<g>
</g>
<g>
</g>
<g>
</g>
<g>
</g>
<g>
</g>
<g>
</g>
<g>
</g>
<g>
</g>
<g>
</g>
<g>
</g>
<g>
</g>
<g>
</g>
<g>
</g>
</svg>
