<?xml version="1.0" encoding="utf-8"?>
<!-- Generator: Adobe Illustrator 21.0.2, SVG Export Plug-In . SVG Version: 6.00 Build 0)  -->
<svg version="1.1" id="stop" xmlns="http://www.w3.org/2000/svg" xmlns:xlink="http://www.w3.org/1999/xlink" x="0px" y="0px"
	 viewBox="0 0 400 400" style="enable-background:new 0 0 400 400;" xml:space="preserve">
<style type="text/css">
	.st0{fill:#FFFFFF;}
</style>
<path d="M193.1,89.4c4.5,0,8.9,0,13.4,0c2.7,0.4,5.3,0.7,8,1.1c12.4,1.6,24.2,5.3,35.4,11c16,8.2,29.3,19.6,39.8,34.3
	c10.7,14.9,17.2,31.5,19.6,49.7c0.3,2.6,0.7,5.2,1,7.8c0,4.5,0,8.9,0,13.4c-0.4,2.8-0.7,5.6-1.1,8.4c-1.6,12.4-5.3,24.1-11,35.2
	c-8.2,16-19.6,29.2-34.2,39.6c-14.9,10.6-31.3,17.2-49.5,19.6c-2.7,0.4-5.3,0.7-8,1.1c-4.5,0-8.9,0-13.4,0c-2.7-0.4-5.3-0.7-8-1.1
	c-12.5-1.6-24.3-5.3-35.5-11c-15.9-8.2-29.2-19.6-39.6-34.2c-10.7-14.9-17.2-31.5-19.6-49.6c-0.3-2.6-0.7-5.2-1-7.8
	c0-4.5,0-8.9,0-13.4c0.1-0.6,0.3-1.3,0.4-1.9c0.9-11.5,3.5-22.6,7.9-33.3c7.3-17.6,18.3-32.3,33.1-44.2c16-12.8,34.2-20.7,54.6-23.3
	C187.9,90.1,190.5,89.7,193.1,89.4z"/>
<path class="st0" d="M242.2,200c0,8.9,0,17.8,0,26.6c0,8.8-5.7,14.5-14.4,14.5c-17.9,0-35.9,0-53.8,0c-8.7,0-14.4-5.7-14.4-14.3
	c0-17.9,0-35.9,0-53.8c0-8.9,5.7-14.5,14.6-14.5c17.8,0,35.6,0.1,53.5-0.1c8.4-0.1,14.9,6.3,14.6,14.6C242,182,242.2,191,242.2,200z
	"/>
<g>
</g>
<g>
</g>
<g>
</g>
<g>
</g>
<g>
</g>
<g>
</g>
<g>
</g>
<g>
</g>
<g>
</g>
<g>
</g>
<g>
</g>
<g>
</g>
<g>
</g>
<g>
</g>
<g>
</g>
</svg>
